# xmcd
#
# Track frame offsets:
#	150
#	13263
#	24972
#	35131
#	46739
#	58299
#	64310
#	75769
#	83563
#	94725
#	104773
#	113407
#	123709
#	134039
#	144275
#	156249
#
# Disc length: 2218 seconds
# Revision: 0
# Processed by: cddbd v1.5.2PL0 Copyright (c) Steve Scherf et al.
# Submitted via: dBpowerAMP V12.0
#
DISCID=d608a810
DTITLE=Rex Allen - Yodelin' Crazy
DYEAR=1900
DGENRE=Country
TTITLE0=Yodelin' Crazy
TTITLE1=Out Where The The Winds Blow
TTITLE2=Texas Plains
TTITLE3=Cowpoke
TTITLE4=Chime Bells
TTITLE5=My Miss By The Swiss Chalet
TTITLE6=Ridin' Down The Canyon
TTITLE7=Hold On, Little Doggies, Hold On
TTITLE8=Dreaming Of My Western Plains
TTITLE9=Hawaiian Cowboy
TTITLE10=Way Out West Is Calling
TTITLE11=My Adobe Shack
TTITLE12=Happy Yodelin' Man
TTITLE13=Tuck Me To Sleep In My Old 'Tucky Home
TTITLE14=Afraid
TTITLE15=Tying Knots In The Devil's Tail
EXTD=
EXTT0=
EXTT1=
EXTT2=
EXTT3=
EXTT4=
EXTT5=
EXTT6=
EXTT7=
EXTT8=
EXTT9=
EXTT10=
EXTT11=
EXTT12=
EXTT13=
EXTT14=
EXTT15=
PLAYORDER=
